<svg width="52" height="56" viewBox="0 0 52 56" fill="none" xmlns="http://www.w3.org/2000/svg">
<path d="M30.5294 21.4924V28.8386H36.5701C37.0348 28.8386 37.2671 29.3453 37.2671 29.8519L36.3378 34.665C36.3378 34.9183 35.8731 35.1716 35.6408 35.1716H30.5294V53.6639H23.5593V35.4249H19.6096C19.1449 35.4249 18.9126 35.1716 18.9126 34.665V29.8519C18.9126 29.3453 19.1449 29.0919 19.6096 29.0919H23.5593V20.7324C23.5593 16.426 26.5797 13.1328 30.5294 13.1328H36.8025C37.2671 13.1328 37.4995 13.3861 37.4995 13.8928V19.9724C37.4995 20.4791 37.2671 20.7324 36.8025 20.7324H31.2264C30.7617 20.7324 30.5294 20.9857 30.5294 21.4924Z" stroke="#E2E1CC" stroke-width="4.19703" stroke-miterlimit="10" stroke-linecap="round"/>
<path d="M32.8531 53.6639H18.9129C7.29613 53.6639 2.64941 48.5975 2.64941 35.9315V20.7324C2.64941 8.06639 7.29613 3 18.9129 3H32.8531C44.4699 3 49.1166 8.06639 49.1166 20.7324V35.9315C49.1166 48.5975 44.4699 53.6639 32.8531 53.6639Z" stroke="#E2E1CC" stroke-width="4.19703" stroke-linecap="round" stroke-linejoin="round"/>
</svg>
