<svg width="52" height="56" viewBox="0 0 52 56" fill="none" xmlns="http://www.w3.org/2000/svg">
<path d="M18.8903 53.6639H33.0895C44.922 53.6639 49.6551 48.5975 49.6551 35.9315V20.7324C49.6551 8.06639 44.922 3 33.0895 3H18.8903C7.05774 3 2.32471 8.06639 2.32471 20.7324V35.9315C2.32471 48.5975 7.05774 53.6639 18.8903 53.6639Z" stroke="#E2E1CC" stroke-width="4.19703" stroke-linecap="round" stroke-linejoin="round"/>
<path d="M25.9898 37.1984C30.5643 37.1984 34.2727 33.2289 34.2727 28.3322C34.2727 23.4356 30.5643 19.4661 25.9898 19.4661C21.4154 19.4661 17.707 23.4356 17.707 28.3322C17.707 33.2289 21.4154 37.1984 25.9898 37.1984Z" stroke="#E2E1CC" stroke-width="4.19703" stroke-linecap="round" stroke-linejoin="round"/>
<path d="M39.3276 15.666H39.3532" stroke="#E2E1CC" stroke-width="5.59604" stroke-linecap="round" stroke-linejoin="round"/>
</svg>
