<svg width="48" height="51" viewBox="0 0 48 51" fill="none" xmlns="http://www.w3.org/2000/svg">
<path d="M23.644 30.431C18.2737 30.431 13.8867 26.3562 13.8867 21.3157C13.8867 16.2753 18.2737 12.2241 23.644 12.2241C29.0142 12.2241 33.4011 16.2989 33.4011 21.3393C33.4011 26.3798 29.0142 30.431 23.644 30.431ZM23.644 15.7572C20.3664 15.7572 17.6686 18.2539 17.6686 21.3393C17.6686 24.4248 20.3412 26.9215 23.644 26.9215C26.9468 26.9215 29.6193 24.4248 29.6193 21.3393C29.6193 18.2539 26.9216 15.7572 23.644 15.7572Z" fill="#E2E1CC"/>
<path d="M23.6407 50.6639C19.9093 50.6639 16.1526 49.3449 13.228 46.7304C5.79036 40.0412 -2.42885 29.3714 0.672264 16.676C3.47083 5.15825 14.2365 0 23.6407 0H23.6659C33.0701 0 43.8357 5.15825 46.6343 16.6995C49.7102 29.395 41.491 40.0412 34.0534 46.7304C31.1287 49.3449 27.3721 50.6639 23.6407 50.6639ZM23.6407 3.53305C16.3039 3.53305 6.87449 7.18386 4.37847 17.4533C1.65554 28.547 9.11838 38.1098 15.8753 44.1631C20.237 48.0966 27.0696 48.0966 31.4313 44.1631C38.163 38.1098 45.6258 28.547 42.9533 17.4533C40.4321 7.18386 30.9775 3.53305 23.6407 3.53305Z" fill="#E2E1CC"/>
</svg>
